<svg width="16" height="19" viewBox="0 0 16 19" fill="none" xmlns="http://www.w3.org/2000/svg">
<path d="M13 5H12V4C12 2.93913 11.5786 1.92172 10.8284 1.17157C10.0783 0.421427 9.06087 0 8 0C6.93913 0 5.92172 0.421427 5.17157 1.17157C4.42143 1.92172 4 2.93913 4 4V5H3C2.20435 5 1.44129 5.31607 0.87868 5.87868C0.316071 6.44129 0 7.20435 0 8V16C0 16.7956 0.316071 17.5587 0.87868 18.1213C1.44129 18.6839 2.20435 19 3 19H13C13.7956 19 14.5587 18.6839 15.1213 18.1213C15.6839 17.5587 16 16.7956 16 16V8C16 7.20435 15.6839 6.44129 15.1213 5.87868C14.5587 5.31607 13.7956 5 13 5ZM6 4C6 3.46957 6.21071 2.96086 6.58579 2.58579C6.96086 2.21071 7.46957 2 8 2C8.53043 2 9.03914 2.21071 9.41421 2.58579C9.78929 2.96086 10 3.46957 10 4V5H6V4ZM14 16C14 16.2652 13.8946 16.5196 13.7071 16.7071C13.5196 16.8946 13.2652 17 13 17H3C2.73478 17 2.48043 16.8946 2.29289 16.7071C2.10536 16.5196 2 16.2652 2 16V8C2 7.73478 2.10536 7.48043 2.29289 7.29289C2.48043 7.10536 2.73478 7 3 7H13C13.2652 7 13.5196 7.10536 13.7071 7.29289C13.8946 7.48043 14 7.73478 14 8V16ZM9.5 11.48C9.49927 11.7334 9.43476 11.9826 9.31243 12.2045C9.1901 12.4265 9.01388 12.6141 8.8 12.75V13.48C8.8 13.6922 8.71571 13.8957 8.56569 14.0457C8.41566 14.1957 8.21217 14.28 8 14.28C7.78783 14.28 7.58434 14.1957 7.43431 14.0457C7.28429 13.8957 7.2 13.6922 7.2 13.48V12.75C6.98612 12.6141 6.8099 12.4265 6.68757 12.2045C6.56524 11.9826 6.50073 11.7334 6.5 11.48C6.5 11.0822 6.65804 10.7006 6.93934 10.4193C7.22064 10.138 7.60218 9.98 8 9.98C8.39782 9.98 8.77936 10.138 9.06066 10.4193C9.34196 10.7006 9.5 11.0822 9.5 11.48Z" fill="#9CA3AF"/>
</svg>
